<svg width="26" height="26" viewBox="0 0 26 26" fill="none" xmlns="http://www.w3.org/2000/svg">
<path d="M10.5171 2.16663H3.74631C2.87516 2.16663 2.1665 2.87528 2.1665 3.74643V7.80893C2.1665 8.68025 2.87516 9.38891 3.74631 9.38891H10.5171C11.3885 9.38891 12.0971 8.68025 12.0971 7.80893V3.74643C12.0971 2.87528 11.3885 2.16663 10.5171 2.16663ZM10.5171 11.1943H3.74631C2.87516 11.1943 2.1665 11.903 2.1665 12.7743V22.2535C2.1665 23.1246 2.87516 23.8333 3.74631 23.8333H10.5171C11.3885 23.8333 12.0971 23.1246 12.0971 22.2535V12.7743C12.0971 11.903 11.3885 11.1943 10.5171 11.1943ZM22.2534 16.611H15.4825C14.6112 16.611 13.9026 17.3197 13.9026 18.191V22.2535C13.9026 23.1246 14.6112 23.8333 15.4825 23.8333H22.2534C23.1245 23.8333 23.8332 23.1246 23.8332 22.2535V18.191C23.8332 17.3197 23.1245 16.611 22.2534 16.611ZM22.2534 2.16663H15.4825C14.6112 2.16663 13.9026 2.87528 13.9026 3.74643V13.2256C13.9026 14.0969 14.6112 14.8056 15.4825 14.8056H22.2534C23.1245 14.8056 23.8332 14.0969 23.8332 13.2256V3.74643C23.8332 2.87528 23.1245 2.16663 22.2534 2.16663Z" fill="white"/>
</svg>
