<svg width="95" height="96" viewBox="0 0 95 96" fill="none" xmlns="http://www.w3.org/2000/svg">
<g opacity="0.4" filter="url(#filter0_f_83032_1883)">
<circle cx="47.2363" cy="48" r="33" fill="#FF7474"/>
</g>
<circle cx="47.2363" cy="43" r="33" fill="#FF7474"/>
<path d="M57.149 32.3794C57.3253 32.6566 57.0232 32.9796 56.7028 32.9067C56.0761 32.7201 55.3828 32.6267 54.6761 32.6267H50.3347C50.088 32.6267 49.8556 32.5107 49.7074 32.3134L48.2095 30.3201C48.0216 30.054 48.1992 29.6667 48.5248 29.6667H52.1961C54.2775 29.6667 56.1109 30.7477 57.149 32.3794Z" fill="white"/>
<path d="M58.0895 35.7201C57.5162 35.3067 56.8628 35.0001 56.1562 34.8267C55.6762 34.6934 55.1828 34.6267 54.6762 34.6267H49.7162C48.9428 34.6267 48.8895 34.5601 48.4762 34.0134L46.6095 31.5334C45.7428 30.3734 45.0628 29.6667 42.8895 29.6667H39.7962C36.5428 29.6667 33.9028 32.3067 33.9028 35.5601V50.4401C33.9028 53.6934 36.5428 56.3334 39.7962 56.3334H54.6762C57.9295 56.3334 60.5695 53.6934 60.5695 50.4401V40.5201C60.5695 38.5334 59.5962 36.7867 58.0895 35.7201ZM50.4228 48.7867H44.0362C43.5162 48.7867 43.1162 48.3734 43.1162 47.8534C43.1162 47.3467 43.5162 46.9201 44.0362 46.9201H50.4228C50.9428 46.9201 51.3562 47.3467 51.3562 47.8534C51.3562 48.3734 50.9428 48.7867 50.4228 48.7867Z" fill="white"/>
<defs>
<filter id="filter0_f_83032_1883" x="0.111328" y="0.875" width="94.25" height="94.25" filterUnits="userSpaceOnUse" color-interpolation-filters="sRGB">
<feFlood flood-opacity="0" result="BackgroundImageFix"/>
<feBlend mode="normal" in="SourceGraphic" in2="BackgroundImageFix" result="shape"/>
<feGaussianBlur stdDeviation="7.0625" result="effect1_foregroundBlur_83032_1883"/>
</filter>
</defs>
</svg>
