<svg width="26" height="26" viewBox="0 0 26 26" fill="none" xmlns="http://www.w3.org/2000/svg">
<g opacity="0.3">
<path d="M21.054 4.37077C21.1973 4.59601 20.9518 4.85841 20.6915 4.79925C20.1823 4.64758 19.619 4.57175 19.0448 4.57175H15.4487C15.2915 4.57175 15.1434 4.4978 15.049 4.37212L13.7907 2.69758C13.6381 2.4814 13.7823 2.16675 14.0469 2.16675H17.0298C18.7209 2.16675 20.2106 3.04504 21.054 4.37077Z" fill="#333F4E"/>
<path d="M21.8182 7.08508C21.3523 6.74925 20.8215 6.50008 20.2473 6.35925C19.8573 6.25091 19.4565 6.19675 19.0448 6.19675H15.0148C14.3865 6.19675 14.3432 6.14258 14.0073 5.69842L12.4907 3.68341C11.7865 2.74091 11.234 2.16675 9.46817 2.16675H6.95484C4.3115 2.16675 2.1665 4.31175 2.1665 6.95508V19.0451C2.1665 21.6884 4.3115 23.8334 6.95484 23.8334H19.0448C21.6882 23.8334 23.8332 21.6884 23.8332 19.0451V10.9851C23.8332 9.37092 23.0423 7.95175 21.8182 7.08508ZM15.589 17.7017H10.3998C9.97734 17.7017 9.65234 17.3659 9.65234 16.9434C9.65234 16.5317 9.97734 16.1851 10.3998 16.1851H15.589C16.0115 16.1851 16.3473 16.5317 16.3473 16.9434C16.3473 17.3659 16.0115 17.7017 15.589 17.7017Z" fill="#333F4E"/>
</g>
</svg>
