<svg width="95" height="96" viewBox="0 0 95 96" fill="none" xmlns="http://www.w3.org/2000/svg">
<g opacity="0.4" filter="url(#filter0_f_83032_2494)">
<circle cx="47.2363" cy="48" r="33" fill="#56B8FF"/>
</g>
<circle cx="47.2363" cy="43" r="33" fill="#56B8FF"/>
<path d="M39.5675 51.5077C38.5234 51.5058 37.5062 51.1826 36.6589 50.5836C35.8117 49.9845 35.1771 49.1398 34.8444 48.1682L34.7977 48.0177C34.6484 47.5588 34.5706 47.0803 34.5671 46.5986V37.6732L31.3321 48.2742C31.1341 49.0286 31.2456 49.8291 31.6426 50.5035C32.0396 51.178 32.6904 51.6725 33.455 51.8808L54.074 57.3017C54.3313 57.3672 54.5887 57.3986 54.842 57.3986C56.1701 57.3986 57.3836 56.5333 57.7236 55.2582L58.925 51.5077H39.5675ZM43.2344 37.7622C44.7052 37.7622 45.9013 36.588 45.9013 35.1441C45.9013 33.7001 44.7052 32.5259 43.2344 32.5259C41.7636 32.5259 40.5675 33.7001 40.5675 35.1441C40.5675 36.588 41.7636 37.7622 43.2344 37.7622Z" fill="white"/>
<path d="M59.9026 28.5989H39.901C39.0172 28.5999 38.1699 28.9451 37.5449 29.5586C36.92 30.1721 36.5684 31.0039 36.5674 31.8716V46.2716C36.5674 48.0755 38.0635 49.5443 39.901 49.5443H59.9026C61.7401 49.5443 63.2362 48.0755 63.2362 46.2716V31.8716C63.2362 30.0677 61.7401 28.5989 59.9026 28.5989ZM39.901 31.2171H59.9026C60.0794 31.2171 60.249 31.286 60.3741 31.4088C60.4991 31.5315 60.5693 31.698 60.5693 31.8716V41.1648L56.357 36.3395C56.1343 36.0884 55.8596 35.8867 55.5513 35.7478C55.243 35.609 54.908 35.5363 54.5689 35.5344C54.2285 35.5362 53.8927 35.611 53.5849 35.7537C53.2771 35.8964 53.0049 36.1035 52.7874 36.3605L47.835 42.1964L46.2215 40.6163C45.7827 40.1863 45.1881 39.9447 44.568 39.9447C43.948 39.9447 43.3533 40.1863 42.9146 40.6163L39.2343 44.2281V31.8716C39.2343 31.698 39.3045 31.5315 39.4295 31.4088C39.5546 31.286 39.7242 31.2171 39.901 31.2171Z" fill="white"/>
<defs>
<filter id="filter0_f_83032_2494" x="0.111328" y="0.875" width="94.25" height="94.25" filterUnits="userSpaceOnUse" color-interpolation-filters="sRGB">
<feFlood flood-opacity="0" result="BackgroundImageFix"/>
<feBlend mode="normal" in="SourceGraphic" in2="BackgroundImageFix" result="shape"/>
<feGaussianBlur stdDeviation="7.0625" result="effect1_foregroundBlur_83032_2494"/>
</filter>
</defs>
</svg>
