<svg width="95" height="96" viewBox="0 0 95 96" fill="none" xmlns="http://www.w3.org/2000/svg">
<g opacity="0.4" filter="url(#filter0_f_83032_1932)">
<circle cx="47.2363" cy="48" r="33" fill="#EEA8FD"/>
</g>
<circle cx="47.2363" cy="43" r="33" fill="#EEA8FD"/>
<path d="M61.4146 35.5925C60.4759 32.4098 57.8212 29.7551 54.6385 28.8164C52.2184 28.1124 50.5464 28.1711 49.3877 29.0364C47.9943 30.0778 47.833 31.9551 47.833 33.2898V36.9419C47.833 40.5499 49.4757 42.3833 52.7024 42.3833H56.9118C58.2319 42.3833 60.1239 42.222 61.1652 40.8286C62.0599 39.6846 62.1333 38.0126 61.4146 35.5925Z" fill="white"/>
<path d="M57.3678 44.9944C56.9865 44.5544 56.4292 44.305 55.8572 44.305H50.6064C48.025 44.305 45.9277 42.2077 45.9277 39.6263V34.3755C45.9277 33.8035 45.6783 33.2462 45.2383 32.8648C44.813 32.4835 44.2263 32.3075 43.6689 32.3808C40.2222 32.8208 37.0542 34.7129 34.9861 37.5582C32.9034 40.4183 32.1408 43.909 32.8008 47.3997C33.7541 52.4452 37.7875 56.4786 42.8476 57.4319C43.6543 57.5932 44.461 57.6666 45.2676 57.6666C47.9224 57.6666 50.4891 56.8452 52.6744 55.2465C55.5198 53.1785 57.4118 50.0105 57.8519 46.5637C57.9252 45.9917 57.7492 45.4197 57.3678 44.9944Z" fill="white"/>
<defs>
<filter id="filter0_f_83032_1932" x="0.111328" y="0.875" width="94.25" height="94.25" filterUnits="userSpaceOnUse" color-interpolation-filters="sRGB">
<feFlood flood-opacity="0" result="BackgroundImageFix"/>
<feBlend mode="normal" in="SourceGraphic" in2="BackgroundImageFix" result="shape"/>
<feGaussianBlur stdDeviation="7.0625" result="effect1_foregroundBlur_83032_1932"/>
</filter>
</defs>
</svg>
