<svg width="26" height="26" viewBox="0 0 26 26" fill="none" xmlns="http://www.w3.org/2000/svg">
<g opacity="0.3">
<path d="M24.5199 6.9814C23.7572 4.39544 21.6003 2.23849 19.0143 1.47581C17.048 0.903802 15.6895 0.95147 14.7481 1.65457C13.6159 2.50066 13.4849 4.02602 13.4849 5.11046V8.07776C13.4849 11.0093 14.8196 12.4989 17.4413 12.4989H20.8614C21.9339 12.4989 23.4712 12.3678 24.3173 11.2357C25.0442 10.3062 25.1038 8.94769 24.5199 6.9814Z" fill="#333F4E"/>
<path d="M21.2319 14.6204C20.9221 14.2629 20.4692 14.0603 20.0044 14.0603H15.7382C13.6408 14.0603 11.9367 12.3562 11.9367 10.2588V5.9926C11.9367 5.52784 11.7341 5.075 11.3766 4.76516C11.031 4.45532 10.5544 4.31232 10.1015 4.3719C7.30107 4.72941 4.72703 6.26668 3.04675 8.57856C1.35455 10.9023 0.734876 13.7386 1.27114 16.5748C2.04573 20.6742 5.32287 23.9513 9.43419 24.7259C10.0896 24.857 10.745 24.9166 11.4005 24.9166C13.5574 24.9166 15.6429 24.2492 17.4185 22.9503C19.7304 21.27 21.2676 18.696 21.6251 15.8955C21.6847 15.4308 21.5417 14.966 21.2319 14.6204Z" fill="#333F4E"/>
</g>
</svg>
