<svg width="26" height="26" viewBox="0 0 26 26" fill="none" xmlns="http://www.w3.org/2000/svg">
<g opacity="0.3">
<path d="M22.9127 6.68409C22.4685 6.44575 21.5368 6.19658 20.2693 7.08492L18.6768 8.21159C18.5577 4.84242 17.0952 3.52075 13.5418 3.52075H7.04183C3.33683 3.52075 1.896 4.96159 1.896 8.66658V17.3333C1.896 19.8249 3.25016 22.4791 7.04183 22.4791H13.5418C17.0952 22.4791 18.5577 21.1574 18.6768 17.7883L20.2693 18.9149C20.941 19.3916 21.526 19.5433 21.9918 19.5433C22.3927 19.5433 22.7068 19.4241 22.9127 19.3158C23.3568 19.0883 24.1043 18.4708 24.1043 16.9216V9.07825C24.1043 7.52909 23.3568 6.91159 22.9127 6.68409ZM11.9168 12.3283C10.801 12.3283 9.88016 11.4183 9.88016 10.2916C9.88016 9.16492 10.801 8.25492 11.9168 8.25492C13.0327 8.25492 13.9535 9.16492 13.9535 10.2916C13.9535 11.4183 13.0327 12.3283 11.9168 12.3283Z" fill="#333F4E"/>
</g>
</svg>
